<?xml version="1.0" encoding="UTF-8" standalone="no"?>
<svg
   xmlns:svg="http://www.w3.org/2000/svg"
   xmlns="http://www.w3.org/2000/svg"
   viewBox="0 0 220.57927 310.16949"
   height="310.16949"
   width="220.57927"
   version="1.1"
   id="svg2">
  <metadata
     id="metadata8">
    <rdf:RDF>
      <cc:Work
         rdf:about="">
        <dc:format>image/svg+xml</dc:format>
        <dc:type
           rdf:resource="http://purl.org/dc/dcmitype/StillImage" />
        <dc:title></dc:title>
      </cc:Work>
    </rdf:RDF>
  </metadata>
  <defs
     id="defs6" />
  <path
     id="path3338"
     d="m 109.03266,309.5339 c -0.21605,-0.34958 -0.94798,-0.63559 -1.6265,-0.63559 -0.67852,0 -1.23367,-0.28602 -1.23367,-0.6356 0,-0.34957 -0.55515,-0.63559 -1.23367,-0.63559 -0.67853,0 -1.41045,-0.28602 -1.6265,-0.63559 -0.21605,-0.34958 -0.94797,-0.6356 -1.6265,-0.6356 -0.67852,0 -1.23367,-0.28601 -1.23367,-0.63559 0,-0.34958 -0.555145,-0.63559 -1.233665,-0.63559 -0.67852,0 -1.41045,-0.28602 -1.6265,-0.6356 -0.21605,-0.34957 -0.94797,-0.63559 -1.62649,-0.63559 -0.67853,0 -1.23368,-0.28602 -1.23368,-0.63559 0,-0.34958 -0.43291,-0.6356 -0.96201,-0.6356 -0.52911,0 -1.45866,-0.25471 -2.06568,-0.56603 -0.60702,-0.31132 -2.46224,-1.16937 -4.12273,-1.90678 -13.64161,-6.05814 -14.64717,-6.51195 -17.22108,-7.77181 -1.34395,-0.65783 -2.84554,-1.19606 -3.33687,-1.19606 -0.49133,0 -0.89332,-0.28601 -0.89332,-0.63559 0,-0.34957 -0.71505,-0.63559 -1.58899,-0.63559 -0.87394,0 -1.58898,-0.28602 -1.58898,-0.63559 0,-0.34958 -0.57203,-0.6356 -1.27119,-0.6356 -0.69915,0 -1.27118,-0.28601 -1.27118,-0.63559 0,-0.34958 -0.71504,-0.63559 -1.58899,-0.63559 -0.87394,0 -1.58898,-0.28602 -1.58898,-0.6356 0,-0.34957 -0.55515,-0.63559 -1.23367,-0.63559 -0.67853,0 -1.41045,-0.28602 -1.6265,-0.63559 -0.21605,-0.34958 -0.94797,-0.6356 -1.62649,-0.6356 -0.67852,0 -1.23368,-0.28601 -1.23368,-0.63559 0,-0.34958 -0.402,-0.63559 -0.89332,-0.63559 -0.77007,0 -2.79384,-0.8767 -7.51966,-3.25755 -0.60702,-0.30581 -1.53657,-0.55601 -2.06568,-0.55601 -0.52911,0 -0.96202,-0.28602 -0.96202,-0.6356 0,-0.34957 -0.55515,-0.63559 -1.23367,-0.63559 -0.67853,0 -1.41044,-0.28602 -1.62649,-0.63559 -0.21606,-0.34958 -0.94798,-0.6356 -1.6265,-0.6356 -0.67852,0 -1.23367,-0.28601 -1.23367,-0.63559 0,-0.34958 -0.55516,-0.63559 -1.23368,-0.63559 -0.67852,0 -1.41044,-0.28602 -1.62649,-0.6356 -0.21605,-0.34957 -0.94798,-0.63559 -1.6265,-0.63559 -0.67852,0 -1.23367,-0.28602 -1.23367,-0.63559 0,-0.34958 -0.55516,-0.6356 -1.23368,-0.6356 -0.67852,0 -1.41044,-0.28601 -1.62649,-0.63559 -0.21605,-0.34957 -0.94798,-0.63559 -1.6265,-0.63559 -0.67852,0 -1.23367,-0.23264 -1.23367,-0.51696 0,-0.28433 -1.00106,-0.90975 -2.22458,-1.38982 -1.22352,-0.48007 -2.22457,-1.10549 -2.22457,-1.38982 0,-0.28433 -0.28275,-0.51696 -0.62833,-0.51696 -1.98703,0 -12.083536,-11.06809 -12.083536,-13.24632 0,-0.4052 -0.286017,-0.73673 -0.635593,-0.73673 -0.349576,0 -0.635593,-0.51483 -0.635593,-1.14407 0,-0.62924 -0.261414,-1.41578 -0.580914,-1.74788 -0.319506,-0.3321 -1.249061,-2.46292 -2.065677,-4.73517 L 0.346227,242.47881 0.17311,121.23941 0,0 l 110.28963,0 110.28964,0 0,120.24089 c 0,75.06366 -0.22931,120.97427 -0.61032,122.1928 -0.33569,1.07355 -0.97017,3.31048 -1.40995,4.97097 -0.43978,1.66049 -0.98744,3.01907 -1.217,3.01907 -0.22956,0 -0.5821,0.82358 -0.78341,1.83016 -0.20132,1.0066 -0.80911,2.27325 -1.35064,2.81478 -0.54153,0.54153 -0.98819,1.21954 -0.99257,1.50669 -0.0251,1.64621 -9.84785,11.64498 -11.43998,11.64498 -0.34557,0 -0.62832,0.23263 -0.62832,0.51696 0,0.28433 -1.00106,0.90975 -2.22458,1.38982 -1.22352,0.48007 -2.22458,1.10549 -2.22458,1.38982 0,0.28432 -0.40199,0.51696 -0.89332,0.51696 -0.77007,0 -2.79384,0.8767 -7.51966,3.25754 -0.60702,0.30581 -1.53657,0.55602 -2.06568,0.55602 -0.52911,0 -0.96201,0.28601 -0.96201,0.63559 0,0.34958 -0.55516,0.63559 -1.23368,0.63559 -0.67852,0 -1.41044,0.28602 -1.62649,0.6356 -0.21606,0.34957 -0.94798,0.63559 -1.6265,0.63559 -0.67852,0 -1.23367,0.28602 -1.23367,0.63559 0,0.34958 -0.55516,0.6356 -1.23368,0.6356 -0.67852,0 -1.41044,0.28601 -1.62649,0.63559 -0.21605,0.34958 -0.94798,0.63559 -1.6265,0.63559 -0.67852,0 -1.23367,0.28602 -1.23367,0.6356 0,0.34957 -0.55516,0.63559 -1.23368,0.63559 -0.67852,0 -1.41044,0.28602 -1.62649,0.63559 -0.21605,0.34958 -0.94798,0.6356 -1.6265,0.6356 -0.67852,0 -1.23367,0.28601 -1.23367,0.63559 0,0.34958 -0.55515,0.63559 -1.23368,0.63559 -0.67852,0 -1.41044,0.28602 -1.62649,0.6356 -0.21605,0.34957 -0.94798,0.63559 -1.6265,0.63559 -0.67852,0 -1.23367,0.28602 -1.23367,0.63559 0,0.34958 -0.55515,0.6356 -1.23367,0.6356 -0.67853,0 -1.41045,0.28601 -1.6265,0.63559 -0.21605,0.34958 -0.94797,0.63559 -1.6265,0.63559 -0.67852,0 -1.23367,0.28602 -1.23367,0.6356 0,0.34957 -0.55515,0.63559 -1.23367,0.63559 -0.67852,0 -1.41045,0.28602 -1.6265,0.63559 -0.21605,0.34958 -0.94797,0.63559 -1.62649,0.63559 -0.67853,0 -1.23368,0.28602 -1.23368,0.6356 0,0.34957 -0.55515,0.63559 -1.23367,0.63559 -0.67852,0 -1.41045,0.28602 -1.6265,0.63559 -0.21605,0.34958 -0.94797,0.6356 -1.62649,0.6356 -0.67853,0 -1.23368,0.28601 -1.23368,0.63559 0,0.34958 -0.55515,0.63559 -1.23367,0.63559 -0.67852,0 -1.41045,0.28602 -1.6265,0.6356 -0.21605,0.34957 -0.94797,0.63559 -1.62649,0.63559 -0.67852,0 -1.23368,0.28602 -1.23368,0.63559 0,0.34958 -0.55515,0.6356 -1.23367,0.6356 -0.67852,0 -1.41045,0.28601 -1.6265,0.63559 -0.21605,0.34958 -0.94797,0.63559 -1.62649,0.63559 -0.67852,0 -1.23368,0.28602 -1.23368,0.6356 0,0.34957 -0.55515,0.63559 -1.23367,0.63559 -0.67852,0 -1.41044,0.28602 -1.6265,0.63559 -0.21605,0.34958 -0.94797,0.6356 -1.62649,0.6356 -0.67852,0 -1.23367,0.28601 -1.23367,0.63559 0,0.34958 -0.55516,0.63559 -1.23368,0.63559 -0.67852,0 -1.41044,0.28602 -1.62649,0.6356 -0.21605,0.34957 -0.94798,0.63559 -1.6265,0.63559 -0.67852,0 -1.23367,0.28602 -1.23367,0.63559 0,0.34958 -0.55516,0.6356 -1.23368,0.6356 -0.67852,0 -1.41044,0.28601 -1.62649,0.63559 -0.21605,0.34958 -0.94798,0.63559 -1.6265,0.63559 -0.67852,0 -1.23367,0.28602 -1.23367,0.6356 0,0.34957 -0.55516,0.63559 -1.23368,0.63559 -0.67852,0 -1.41044,0.28602 -1.62649,0.63559 -0.21605,0.34958 -0.94798,0.6356 -1.6265,0.6356 -0.67852,0 -1.23367,0.28601 -1.23367,0.63559 0,0.34957 -0.55515,0.63559 -1.23368,0.63559 -0.67852,0 -1.41044,-0.28602 -1.62649,-0.63559 z m 2.54313,-17.1634 c 0.38803,-1.22257 6.21713,-7.62474 6.94224,-7.62474 1.03288,0 10.57206,-9.29443 13.69892,-13.34745 1.21363,-1.5731 2.35789,-3.00318 2.5428,-3.17797 0.7375,-0.69712 4.31161,-6.90763 6.21825,-10.80509 2.38647,-4.87828 5.86128,-14.95837 5.86784,-17.02206 0.003,-0.79752 0.38171,-1.59474 0.84259,-1.7716 0.4609,-0.17686 10.97202,-0.38239 23.35806,-0.45674 l 22.52007,-0.13519 0.16087,-100.30828 0.16086,-100.308291 -1.43205,0.450629 c -1.65179,0.519775 -8.95521,5.330695 -9.27104,6.107028 -0.11653,0.28643 -0.4691,0.520779 -0.78351,0.520779 -1.46579,0 -14.50389,13.047164 -17.23415,17.246141 -0.58768,0.903813 -1.44573,2.040947 -1.90678,2.526966 -0.46105,0.486019 -1.53198,2.170748 -2.37985,3.743841 -0.84787,1.573093 -1.70978,3.003178 -1.91535,3.177966 -0.20558,0.174788 -0.9837,1.604873 -1.72917,3.177966 -5.42921,11.456835 -7.5641,19.128963 -9.10847,32.733055 -0.74608,6.57199 -1.62733,13.9274 -2.57011,21.45127 -0.36138,2.884 -0.92376,7.67479 -1.24973,10.64619 -0.32597,2.97139 -0.89955,7.83368 -1.27463,10.80508 -0.37507,2.9714 -0.84813,7.04714 -1.05124,9.0572 l -0.36928,3.65466 3.89857,0 c 4.04653,0 5.3831,0.49901 8.5121,3.17797 5.4909,4.70114 5.74432,13.40447 0.55215,18.9627 -1.03366,1.10653 -2.19365,2.01188 -2.57776,2.01188 -0.38411,0 -0.69838,0.28601 -0.69838,0.63559 0,0.34958 -0.84117,0.63559 -1.86927,0.63559 -1.0281,0 -2.04604,0.28602 -2.26209,0.6356 -0.21605,0.34957 -1.60581,0.63559 -3.08836,0.63559 -1.48254,0 -3.03399,0.33845 -3.44765,0.75212 -0.41367,0.41367 -0.87033,0.62818 -1.01481,0.47669 -0.75843,-0.79519 -9.2924,-18.3734 -9.2924,-19.14041 0,-0.49608 -0.26026,-1.17368 -0.57837,-1.50577 -0.75144,-0.78451 -6.67933,-18.63184 -7.69492,-23.16738 -0.43051,-1.92267 -1.007,-4.2108 -1.28107,-5.08474 -0.60039,-1.91444 -1.54381,-7.2992 -2.56566,-14.64411 -1.00131,-7.19723 -0.25554,-33.115782 1.57205,-54.635554 0.19298,-2.272246 0.67432,-9.851695 1.06966,-16.84322 0.61897,-10.946624 0.58151,-13.424675 -0.26971,-17.845004 -1.43803,-7.467502 -4.1209,-13.901148 -7.26111,-17.412464 -0.79041,-0.883817 -1.59623,-2.107468 -1.79071,-2.719226 -0.19449,-0.611759 -0.56878,-1.112288 -0.83176,-1.112288 -0.62947,0 -2.94158,2.679705 -3.92906,4.553733 -0.4302,0.816419 -0.95773,1.627411 -1.1723,1.802199 -1.11391,0.907417 -3.80753,7.620877 -5.15639,12.851599 -0.801365,3.107619 -0.506225,22.07726 0.59609,38.313654 2.82272,41.576091 2.37862,55.814501 -2.269405,72.761101 -0.5295,1.93055 -1.18926,4.36814 -1.46613,5.41687 -1.06566,4.03658 -5.24072,15.91902 -5.79527,16.49364 -0.32049,0.3321 -0.58271,1.03513 -0.58271,1.56231 0,1.67692 -9.7327,20.39744 -10.60453,20.39744 -0.45988,0 -0.83615,-0.28602 -0.83615,-0.6356 0,-0.34957 -1.27019,-0.63559 -2.82265,-0.63559 -1.55246,0 -2.99943,-0.28602 -3.21548,-0.63559 -0.21605,-0.34958 -0.97533,-0.6356 -1.68728,-0.6356 -1.17706,0 -4.22488,-1.77607 -6.01632,-3.50592 -0.39163,-0.37817 -1.2413,-1.67466 -1.88813,-2.88109 -1.37754,-2.56928 -1.53882,-9.65563 -0.27357,-12.01977 1.1692,-2.18467 4.90679,-5.74576 6.03056,-5.74576 0.53601,0 0.97457,-0.28602 0.97457,-0.63559 0,-0.35854 1.80084,-0.6356 4.13136,-0.6356 4.01876,0 4.61123,-0.32014 4.11691,-2.22457 -0.0907,-0.34958 -0.40097,-3.06674 -0.68941,-6.03814 -0.49225,-5.07114 -0.7517,-7.33007 -2.40902,-20.97457 -0.36091,-2.9714 -0.81761,-6.97564 -1.01488,-8.89831 -0.19727,-1.92267 -0.62424,-5.35487 -0.94883,-7.62712 -0.32458,-2.27224 -0.90668,-7.13453 -1.29355,-10.80508 -0.38687,-3.67055 -0.95291,-7.674792 -1.25786,-8.898312 -0.30495,-1.22351 -0.89397,-3.65466 -1.30893,-5.40254 -0.97668,-4.113997 -2.13134,-7.69941 -3.4891,-10.83422 -1.88015,-4.340917 -4.98048,-10.74912 -5.52099,-11.411542 -0.28524,-0.349576 -1.43374,-2.065678 -2.55222,-3.813559 -1.11848,-1.747882 -2.32654,-3.500441 -2.68456,-3.894579 -0.35802,-0.394137 -1.07998,-1.368692 -1.60434,-2.165682 -0.98315,-1.49428 -11.46677,-12.14431 -13.89921,-14.119823 -0.75326,-0.611758 -1.58917,-1.112288 -1.85758,-1.112288 -0.26841,0 -0.90031,-0.572034 -1.40423,-1.271186 -0.50393,-0.699153 -1.22817,-1.271187 -1.60945,-1.271187 -0.38127,0 -1.25625,-0.500529 -1.94439,-1.112288 -1.3144,-1.1685 -4.95433,-3.336864 -5.60143,-3.336864 -0.20825,0 -0.37863,45.201183 -0.37863,100.44707 l 0,100.44708 20.81568,-0.0475 c 11.44862,-0.0261 21.67541,-0.0367 22.7262,-0.0233 2.11716,0.0268 2.72843,1.01997 4.12238,6.69793 0.42911,1.74788 1.32087,4.39042 1.9817,5.8723 0.66082,1.4819 1.2015,2.95645 1.2015,3.27681 0,0.59242 2.59777,5.84272 3.17796,6.42292 0.17479,0.17479 1.01151,1.60487 1.85938,3.17797 0.84787,1.57309 1.7197,3.00317 1.9374,3.17796 0.21771,0.17479 1.08747,1.31886 1.9328,2.54237 3.05234,4.41788 13.758415,15.23488 15.107575,15.2641 0.56769,0.0123 5.84695,5.56119 7.11036,7.47351 1.15599,1.74972 1.72213,1.78539 2.24392,0.14137 z m 6.04753,-40.39348 -0.0102,-14.01873 6.97645,0.0736 c 3.83705,0.0405 7.1579,0.25503 7.37967,0.47679 0.9881,0.98809 -6.08832,18.271 -7.48097,18.271 -0.28556,0 -0.52304,0.35752 -0.52772,0.79449 -0.008,0.77763 -1.09375,2.28765 -4.58938,6.38484 l -1.73773,2.03677 -0.0102,-14.01874 z m -17.00933,11.13765 c -1.134505,-1.21201 -2.064055,-2.43013 -2.065675,-2.70692 -0.002,-0.2768 -0.57497,-1.11728 -1.27413,-1.86773 -0.69915,-0.75046 -1.27118,-1.73956 -1.27118,-2.198 0,-0.45845 -0.23076,-0.83355 -0.5128,-0.83355 -0.45629,0 -4.02,-7.17286 -5.21043,-10.48728 -0.97826,-2.72372 -1.90382,-5.838 -1.90238,-6.40106 6.3e-4,-0.33073 3.14619,-0.57376 7.15042,-0.55249 l 7.148915,0.038 0.1804,6.79465 c 0.0992,3.73705 0.0992,9.8599 0,13.60634 l -0.1804,6.81168 -2.06274,-2.20365 z m -59.272005,-59.72484 0,-20.33898 3.81356,0 c 3.38983,0 3.81356,0.14124 3.81356,1.27118 0,0.69916 0.28602,1.27119 0.63559,1.27119 0.34958,0 0.6356,0.43291 0.6356,0.96202 0,2.29601 7.59113,11.74984 9.43475,11.74984 0.4041,0 0.73474,0.28602 0.73474,0.6356 0,0.34957 0.42902,0.63559 0.95339,0.63559 0.52436,0 0.95339,0.28602 0.95339,0.63559 0,0.34958 0.57203,0.6356 1.27118,0.6356 0.69916,0 1.27119,0.28601 1.27119,0.63559 0,0.34958 0.85805,0.63559 1.90678,0.63559 1.04873,0 1.90678,0.26958 1.90678,0.59905 0,0.32948 1.21557,0.687 2.70127,0.79449 3.15618,0.22836 3.09657,-0.15605 1.50001,9.67397 -0.56282,3.4653 -1.02331,7.25503 -1.02331,8.42161 l 0,2.12105 -15.25424,0 -15.25424,0 0,-20.33898 z m 45.54542,15.41314 c 0.17616,-2.70922 0.58313,-5.75508 0.90438,-6.76858 0.32126,-1.0135 0.5841,-2.51509 0.5841,-3.33686 0,-1.51084 1.47065,-2.07842 2.22458,-0.85855 0.21605,0.34958 1.09098,0.6356 1.94429,0.6356 0.85331,0 1.55147,0.28601 1.55147,0.63559 0,0.34958 0.31754,0.63559 0.70565,0.63559 1.03714,0 6.285865,5.5033 6.285865,6.59075 0,0.51174 0.24683,1.02578 0.54851,1.14231 0.30167,0.11652 0.74822,1.57044 0.99233,3.23093 l 0.44384,3.01906 -8.252645,0 -8.25264,0 0.32027,-4.92584 z m 30.725765,3.29685 c 0,-2.35871 3.0476,-8.22248 5.33946,-10.27345 1.08342,-0.96955 2.82791,-2.1537 3.87664,-2.63146 1.04873,-0.47775 2.40342,-1.12129 3.01044,-1.43008 0.60702,-0.30879 1.21995,-0.56144 1.36208,-0.56144 0.89799,0 2.9368,9.37636 2.9368,13.50612 l 0,3.0193 -8.26271,0 -8.26271,0 0,-1.62899 z m 30.62046,-5.19235 c -0.38732,-3.76415 -0.95434,-8.20047 -1.26005,-9.85849 -0.3057,-1.65802 -0.4108,-3.15961 -0.23355,-3.33687 0.17726,-0.17725 1.40181,-0.32228 2.72122,-0.32228 1.31941,0 2.5757,-0.28602 2.79175,-0.63559 0.21605,-0.34958 1.09098,-0.6356 1.94429,-0.6356 0.85331,0 1.55147,-0.28601 1.55147,-0.63559 0,-0.34958 0.57203,-0.63559 1.27119,-0.63559 0.69915,0 1.27118,-0.28602 1.27118,-0.6356 0,-0.34957 0.41404,-0.63559 0.92008,-0.63559 0.50604,0 2.73501,-1.7876 4.95327,-3.97246 3.99831,-3.93809 6.29292,-7.43677 7.08651,-10.80508 0.39267,-1.66662 0.58898,-1.74788 4.2222,-1.74788 l 3.81037,0 -0.16782,20.18008 -0.16783,20.18009 -15.00503,0.17018 -15.00503,0.1702 -0.70422,-6.84393 z m -40.15436,-15.42442 c -0.87394,-1.02782 -1.94651,-1.87731 -2.38348,-1.88777 -0.43697,-0.0104 -0.79449,-0.2567 -0.79449,-0.5472 0,-0.2905 -0.78654,-0.93358 -1.74788,-1.42907 -0.96133,-0.49549 -1.89089,-1.04435 -2.06568,-1.21969 -0.75628,-0.75869 -3.239475,-1.90779 -4.122725,-1.90779 -0.5291,0 -0.96201,-0.13536 -0.96201,-0.3008 0,-0.81165 2.86165,-6.05514 3.30462,-6.05514 0.27991,0 0.50894,-0.57203 0.50894,-1.27118 0,-0.69916 0.286005,-1.27119 0.635585,-1.27119 0.34958,0 0.63559,-0.57203 0.63559,-1.27119 0,-0.69915 0.28602,-1.27118 0.6356,-1.27118 0.34957,0 0.63559,-0.42447 0.63559,-0.94327 0,-0.51879 0.85805,-2.7146 1.90678,-4.87958 1.04873,-2.16498 1.90678,-4.17477 1.90678,-4.46621 0,-0.29143 0.54068,-1.74233 1.20151,-3.22423 0.66083,-1.48188 1.63679,-3.83841 2.16879,-5.23671 0.81991,-2.15506 1.03325,-2.34872 1.40043,-1.27119 0.23825,0.69915 0.72624,2.12924 1.08442,3.17797 0.35819,1.04873 1.18943,3.11923 1.8472,4.60112 0.65778,1.48189 1.19595,2.97204 1.19595,3.31145 0,0.3394 2.22872,5.0618 4.95272,10.49421 4.6534,9.28021 4.86466,9.87712 3.49576,9.87712 -0.80132,0 -1.45695,0.28601 -1.45695,0.63559 0,0.34958 -0.57203,0.63559 -1.27119,0.63559 -0.69915,0 -1.27118,0.2162 -1.27118,0.48044 0,0.26424 -0.84006,0.85229 -1.8668,1.30676 -1.02674,0.45448 -3.02918,1.95439 -4.44988,3.33312 -1.4207,1.37874 -2.79727,2.49825 -3.05905,2.48779 -0.26179,-0.0104 -1.19101,-0.85995 -2.06495,-1.88777 z M 41.341985,117.90254 c 0,-32.838984 0.21726,-49.894067 0.63559,-49.894067 0.34958,0 0.63595,0.214513 0.63637,0.476695 4.3e-4,0.262182 0.71547,1.307727 1.58899,2.323436 0.87351,1.01571 1.5882,2.067839 1.5882,2.338075 0,0.270235 0.40195,0.893281 0.89322,1.38455 1.20767,1.207672 6.09831,11.002189 6.09831,12.213134 0,0.532125 0.23824,0.9675 0.52942,0.9675 0.47663,0 1.69612,4.063585 3.33799,11.122885 0.32522,1.398302 0.87504,4.973512 1.22182,7.944912 0.34678,2.9714 0.92606,7.83369 1.28728,10.80509 0.36122,2.97139 0.941,7.83368 1.28841,10.80508 0.3474,2.9714 0.89599,7.54767 1.2191,10.16949 1.52179,12.34845 1.53381,12.71187 0.42036,12.71187 -0.57292,0 -1.04167,0.28601 -1.04167,0.63559 0,0.34958 -0.35752,0.63697 -0.79449,0.63864 -1.52385,0.006 -7.81047,7.3331 -9.67689,11.27873 l -1.87912,3.97246 -3.67644,0 -3.67645,0 0,-49.89407 z m 129.883475,47.98729 c -0.20975,-1.04873 -0.63163,-1.90678 -0.9375,-1.90678 -0.30588,0 -0.55615,-0.57203 -0.55615,-1.27119 0,-0.69915 -0.26674,-1.27118 -0.59276,-1.27118 -0.32602,0 -0.78366,-0.60147 -1.01698,-1.3366 -0.56296,-1.77373 -6.20952,-7.25887 -8.52976,-8.28591 -1.8304,-0.81021 -1.83858,-0.83886 -1.5095,-5.28885 0.18198,-2.46083 0.58772,-5.47529 0.90164,-6.69881 0.31393,-1.22352 0.57238,-3.35143 0.57432,-4.72869 0.002,-1.37726 0.28233,-4.09443 0.62306,-6.03813 0.34073,-1.94372 0.92482,-6.53721 1.29799,-10.20776 0.72671,-7.14806 1.54147,-13.26237 2.58322,-19.385592 0.79455,-4.67021 3.18989,-12.634558 3.8869,-12.923727 0.28088,-0.11653 0.51068,-0.625214 0.51068,-1.130416 0,-1.167235 3.65349,-8.440144 4.83171,-9.618362 0.48875,-0.488746 0.88863,-1.13379 0.88863,-1.433428 0,-0.299638 0.36123,-0.922748 0.80274,-1.384684 0.4415,-0.461943 1.31212,-1.635553 1.9347,-2.60803 0.62258,-0.97247 1.39255,-1.607085 1.71103,-1.410254 0.34004,0.210159 0.58657,20.682699 0.59725,49.596533 l 0.0182,49.23864 -3.81904,0 c -3.73489,0 -3.82743,-0.042 -4.20038,-1.90678 z"
     style="fill:#F39F18;fill-opacity:1" />
</svg>
