<?xml version="1.0" encoding="UTF-8" standalone="no"?>
<svg
   xmlns:dc="http://purl.org/dc/elements/1.1/"
   xmlns:cc="http://creativecommons.org/ns#"
   xmlns:rdf="http://www.w3.org/1999/02/22-rdf-syntax-ns#"
   xmlns:svg="http://www.w3.org/2000/svg"
   xmlns="http://www.w3.org/2000/svg"
   id="svg2"
   version="1.1"
   width="105.6998"
   height="109.94563"
   viewBox="0 0 105.6998 109.94563">
  <metadata
     id="metadata8">
    <rdf:RDF>
      <cc:Work
         rdf:about="">
        <dc:format>image/svg+xml</dc:format>
        <dc:type
           rdf:resource="http://purl.org/dc/dcmitype/StillImage" />
        <dc:title></dc:title>
      </cc:Work>
    </rdf:RDF>
  </metadata>
  <defs
     id="defs6" />
  <path
     id="path3338"
     d="M 52.837891 0 L 43.011719 4.9316406 C 37.607359 7.6436748 29.147057 11.272412 24.210938 12.996094 L 15.236328 16.128906 L 12.65625 24.324219 C 11.236971 28.831016 7.8076994 37.581373 5.0371094 43.769531 L 0 55.021484 L 5.2636719 67.769531 C 8.1581999 74.781373 11.503526 83.470703 12.699219 87.078125 L 14.873047 93.636719 L 22.105469 95.931641 C 29.875329 98.398807 43.454031 104.57159 48.337891 107.85547 C 49.987891 108.96492 51.400463 109.90511 51.476562 109.94531 C 51.552622 109.98552 56.681127 107.57411 62.873047 104.58789 C 69.064977 101.60166 77.789066 97.969921 82.259766 96.515625 L 90.386719 93.871094 L 93.642578 83.865234 C 95.432678 78.361949 98.877996 69.619877 101.29883 64.439453 L 105.69922 55.021484 L 100.90039 44.769531 C 98.260952 39.131262 94.864722 30.692578 93.351562 26.017578 C 91.838403 21.342578 90.09076 17.023487 89.46875 16.419922 C 88.84674 15.816357 84.737891 14.075236 80.337891 12.550781 C 75.937891 11.026325 67.950391 7.5801194 62.587891 4.890625 L 52.837891 0 z M 52.818359 3.0664062 L 63.916016 8.5136719 C 70.019966 11.509384 78.124521 14.96127 81.925781 16.185547 C 85.910341 17.46886 88.837891 18.976604 88.837891 19.746094 C 88.837891 22.181611 92.876628 33.122909 97.830078 44.101562 L 102.71875 54.935547 L 98.089844 65.226562 C 95.543774 70.886791 92.265716 79.105208 90.804688 83.490234 L 88.148438 91.462891 L 80.242188 94.230469 C 75.894288 95.752443 68.134567 99.027307 62.998047 101.50781 C 57.861527 103.98831 53.136527 105.98627 52.498047 105.94727 C 51.859567 105.9083 47.568247 103.93035 42.960938 101.55273 C 38.353617 99.175122 30.759697 95.945914 26.085938 94.375 C 20.241008 92.41044 17.330332 90.893219 16.763672 89.517578 C 16.310556 88.417578 13.031289 80.146066 9.4746094 71.136719 L 3.0078125 54.757812 L 6.5273438 47.136719 C 8.4635607 42.946066 11.749883 34.800292 13.830078 29.033203 L 17.613281 18.546875 L 28.892578 14.28125 C 35.097128 11.935419 43.018894 8.4523268 46.496094 6.5410156 L 52.818359 3.0664062 z M 52.925781 8.0429688 L 43.707031 12.529297 C 38.637131 14.99687 31.445654 17.995548 27.726562 19.193359 L 20.964844 21.371094 L 17.800781 30.445312 C 16.060259 35.435856 13.050644 42.991005 11.113281 47.234375 L 7.5917969 54.949219 L 12.5625 67.234375 C 15.296376 73.991005 18.279715 81.568456 19.193359 84.074219 C 20.808455 88.503786 21.055153 88.694245 28.095703 90.951172 C 32.078483 92.227895 39.163181 95.189086 43.837891 97.53125 L 52.335938 101.78906 L 59.837891 98.021484 C 63.963181 95.949385 70.937891 93.005333 75.337891 91.478516 C 79.737891 89.951699 83.715294 88.371934 84.177734 87.96875 C 84.640184 87.565567 86.322466 83.3574 87.916016 78.615234 C 89.509566 73.873069 92.429387 66.457132 94.404297 62.136719 L 97.996094 54.28125 L 94.392578 47.128906 C 92.411308 43.194624 89.491487 36.109961 87.904297 31.386719 C 86.317107 26.663477 84.640184 22.471266 84.177734 22.070312 C 83.715294 21.669358 80.412891 20.309835 76.837891 19.048828 C 73.262891 17.787821 66.419289 14.794852 61.630859 12.398438 L 52.925781 8.0429688 z M 52.855469 19.908203 C 52.89006 19.90242 52.920232 19.906374 52.945312 19.921875 C 53.246021 20.107722 54.263052 21.583274 54.689453 22.451172 C 55.29448 23.682648 55.602844 24.936526 55.675781 26.458984 C 55.708951 27.15147 55.616251 31.01397 55.46875 35.042969 C 55.135848 44.136012 55.115375 49.563746 55.40625 51.525391 C 55.98062 55.398877 56.996695 58.42121 58.234375 59.9375 C 60.899168 63.202156 62.489794 67.344722 62.662109 71.46875 L 62.726562 72.986328 L 60.890625 72.986328 L 59.056641 72.986328 L 58.978516 72.099609 C 58.838932 70.517866 58.476578 68.374781 58.169922 67.320312 C 57.377056 64.593965 55.78849 61.97054 53.669922 59.890625 L 52.863281 59.099609 L 52.427734 59.425781 C 51.68034 59.984865 50.481428 61.296249 49.777344 62.326172 C 47.965609 64.976355 47.074441 67.805808 46.71875 72.041016 L 46.638672 72.986328 L 44.822266 72.986328 L 43.005859 72.986328 L 43.007812 71.927734 C 43.016013 67.795441 44.796785 62.98926 47.5 59.802734 C 48.227632 58.945006 48.374352 58.687006 48.908203 57.304688 C 49.757378 55.105897 50.258279 52.493739 50.455078 49.242188 C 50.553848 47.610272 50.542491 46.164453 50.400391 42.367188 C 49.793933 26.16168 49.792579 25.731682 50.355469 23.882812 C 50.81591 22.370438 52.336596 19.994945 52.855469 19.908203 z M 31.650391 26.859375 C 31.832862 26.859375 33.450317 27.915224 34.410156 28.662109 C 37.688442 31.21306 40.372749 35.010897 41.802734 39.119141 C 42.610053 41.438503 43.005694 43.374443 43.292969 46.431641 C 43.390569 47.470368 43.625058 49.607812 43.814453 51.181641 C 44.165903 54.1021 44.609375 58.119142 44.609375 58.384766 C 44.609375 58.483886 44.361819 58.553263 43.857422 58.59375 C 41.775401 58.760876 40.122076 60.496322 40.289062 62.337891 C 40.391444 63.46697 40.987348 64.280032 42.306641 65.091797 L 42.857422 65.429688 L 42.595703 66.337891 C 42.451131 66.837029 42.26737 67.572404 42.189453 67.970703 C 42.111543 68.368995 42.014424 68.735042 41.972656 68.785156 C 41.870219 68.908062 40.810199 68.479689 40.003906 67.990234 C 38.498429 67.076342 37.330339 65.442574 36.871094 63.607422 C 36.618198 62.596837 36.695549 60.817028 37.033203 59.888672 C 37.565928 58.423989 38.654283 57.057039 39.943359 56.232422 C 40.340029 55.978675 40.625298 55.705206 40.666016 55.542969 C 40.703046 55.395378 40.577188 53.994227 40.384766 52.427734 C 40.192338 50.861247 39.929219 48.548128 39.800781 47.289062 C 39.499533 44.335971 39.217035 42.851045 38.595703 40.962891 C 37.97264 39.069451 37.095003 37.260821 36.001953 35.615234 L 35.166016 34.355469 L 35.136719 54.271484 C 35.120539 65.225323 35.132089 74.25334 35.162109 74.332031 C 35.204809 74.444403 36.763342 74.474609 42.429688 74.474609 L 49.644531 74.474609 L 49.644531 76.076172 L 49.644531 77.679688 L 48.429688 77.679688 L 47.214844 77.679688 L 47.294922 78.107422 C 47.418196 78.771209 48.133376 80.630961 48.583984 81.457031 C 49.082799 82.371484 49.856338 83.473991 50.519531 84.220703 L 51.017578 84.783203 L 51.017578 79.207031 C 51.017578 73.790028 51.011004 73.617293 50.779297 73.138672 C 50.459537 72.478143 49.67695 71.810719 48.810547 71.460938 L 48.099609 71.173828 L 48.134766 70.453125 C 48.169586 69.740727 48.445991 68.079406 48.546875 67.978516 C 48.575565 67.949826 48.859555 68.013481 49.177734 68.119141 C 49.793865 68.323784 51.113866 69.141336 52.183594 69.980469 C 52.541606 70.261301 52.886416 70.458741 52.949219 70.419922 C 53.012019 70.381132 53.542471 69.986933 54.128906 69.544922 C 55.170648 68.759741 56.267032 68.143404 56.871094 68.001953 C 57.153438 67.935843 57.180086 67.966295 57.298828 68.484375 C 57.474865 69.252464 57.655216 70.458383 57.65625 70.873047 C 57.657036 71.185459 57.605969 71.234844 57.144531 71.371094 C 56.432334 71.581383 55.495893 72.264927 55.083984 72.875 L 54.738281 73.386719 L 54.712891 79.109375 L 54.6875 84.832031 L 55.150391 84.318359 C 56.648154 82.654933 58.06789 79.943563 58.404297 78.107422 L 58.484375 77.679688 L 57.269531 77.679688 L 56.054688 77.679688 L 56.054688 76.076172 L 56.054688 74.474609 L 63.269531 74.474609 C 68.93588 74.474609 70.494383 74.444379 70.537109 74.332031 C 70.567029 74.253341 70.57865 65.225323 70.5625 54.271484 L 70.533203 34.355469 L 69.779297 35.5 C 68.743222 37.073849 68.289471 37.922694 67.691406 39.392578 C 66.745379 41.717663 66.244205 43.76553 66.013672 46.259766 C 65.943852 47.015202 65.681298 49.357866 65.429688 51.466797 C 65.178074 53.575722 65.000928 55.413983 65.035156 55.550781 C 65.071076 55.694318 65.434583 56.024304 65.894531 56.330078 C 66.883659 56.987649 67.714787 57.918721 68.246094 58.964844 C 68.792449 60.04059 68.984702 60.832436 68.986328 62.001953 C 68.989728 64.442437 67.72413 66.760371 65.720703 67.976562 C 64.950257 68.444273 63.867863 68.896671 63.728516 68.810547 C 63.677406 68.778947 63.601281 68.520989 63.558594 68.236328 C 63.490544 67.782555 63.035452 66.090885 62.857422 65.626953 C 62.814752 65.515768 62.985401 65.343538 63.369141 65.107422 C 64.713375 64.280308 65.30715 63.473848 65.410156 62.337891 C 65.577142 60.496322 63.923821 58.760876 61.841797 58.59375 C 61.349849 58.55425 61.089844 58.48451 61.089844 58.390625 C 61.089844 58.180912 61.610862 53.504632 61.943359 50.724609 C 62.101475 49.402598 62.310884 47.470368 62.408203 46.431641 C 62.612141 44.254971 62.823178 42.933256 63.212891 41.386719 C 64.509983 36.239337 67.388388 31.712604 71.3125 28.648438 C 72.250467 27.916017 73.86649 26.859375 74.048828 26.859375 C 74.098938 26.859375 74.138672 38.293941 74.138672 52.269531 L 74.138672 77.679688 L 68.273438 77.679688 L 62.40625 77.679688 L 62.099609 78.802734 C 60.940999 83.046785 57.881001 87.024456 53.916016 89.439453 C 53.373391 89.769957 52.89793 90.041016 52.857422 90.041016 C 52.816912 90.041016 52.372088 89.786945 51.871094 89.476562 C 49.125952 87.775835 46.215356 84.64465 44.832031 81.904297 C 44.340988 80.931545 43.863806 79.690079 43.570312 78.619141 L 43.314453 77.679688 L 37.4375 77.679688 L 31.560547 77.679688 L 31.560547 52.269531 C 31.560547 38.293941 31.600281 26.859375 31.650391 26.859375 z "
     style="fill:#f39f18;fill-opacity:1" />
</svg>
